<svg xmlns="http://www.w3.org/2000/svg" viewBox="0 0 256 256" role="img" aria-label="Superior contest level badge">
  <defs>
    <linearGradient id="bg" x1="34" y1="25" x2="220" y2="232" gradientUnits="userSpaceOnUse">
      <stop stop-color="#6B1515"/>
      <stop offset="1" stop-color="#210707"/>
    </linearGradient>
    <linearGradient id="metal" x1="52" y1="31" x2="206" y2="225" gradientUnits="userSpaceOnUse">
      <stop stop-color="#FFE8A5"/>
      <stop offset=".5" stop-color="#F97316"/>
      <stop offset="1" stop-color="#B91C1C"/>
    </linearGradient>
  </defs>
  <circle cx="128" cy="128" r="118" fill="url(#bg)"/>
  <circle cx="128" cy="128" r="104" fill="none" stroke="url(#metal)" stroke-width="10"/>
  <path d="m128 44 65 38v76l-65 54-65-54V82l65-38Z" fill="#350D0D" stroke="url(#metal)" stroke-width="8" stroke-linejoin="round"/>
  <path d="M128 75c18 29 46 39 46 68 0 26-20 45-46 45s-46-19-46-45c0-29 28-39 46-68Z" fill="#F97316"/>
  <path d="M128 103c12 19 28 28 28 46 0 16-12 27-28 27s-28-11-28-27c0-18 16-27 28-46Z" fill="#FFE8A5"/>
  <text x="128" y="218" text-anchor="middle" font-family="Arial, Helvetica, sans-serif" font-size="32" font-weight="800" fill="#FFE8A5">SR</text>
</svg>
